# This file uses centimeters as units for non-parametric coordinates.

mtllib PlaneWithHoleLess.mtl
g default
v -0.500000 -0.000000 0.500000
v -0.166667 -0.000000 0.500000
v 0.166667 -0.000000 0.500000
v 0.500000 -0.000000 0.500000
v -0.500000 -0.000000 0.166667
v -0.166667 -0.000000 0.166667
v 0.166667 -0.000000 0.166667
v 0.500000 -0.000000 0.166667
v -0.500000 0.000000 -0.166667
v -0.166667 0.000000 -0.166667
v 0.166667 0.000000 -0.166667
v 0.500000 0.000000 -0.166667
v -0.500000 0.000000 -0.500000
v -0.166667 0.000000 -0.500000
v 0.166667 0.000000 -0.500000
v 0.500000 0.000000 -0.500000
vt 0.000000 0.000000
vt 0.333333 0.000000
vt 0.666667 0.000000
vt 1.000000 0.000000
vt 0.000000 0.333333
vt 0.333333 0.333333
vt 0.666667 0.333333
vt 1.000000 0.333333
vt 0.000000 0.666667
vt 0.333333 0.666667
vt 0.666667 0.666667
vt 1.000000 0.666667
vt 0.000000 1.000000
vt 0.333333 1.000000
vt 0.666667 1.000000
vt 1.000000 1.000000
vn 0.000000 1.000000 0.000000
vn 0.000000 1.000000 0.000000
vn 0.000000 1.000000 0.000000
vn 0.000000 1.000000 0.000000
vn 0.000000 1.000000 0.000000
vn 0.000000 1.000000 0.000000
vn 0.000000 1.000000 0.000000
vn 0.000000 1.000000 0.000000
vn 0.000000 1.000000 0.000000
vn 0.000000 1.000000 0.000000
vn 0.000000 1.000000 0.000000
vn 0.000000 1.000000 0.000000
vn 0.000000 1.000000 0.000000
vn 0.000000 1.000000 0.000000
vn 0.000000 1.000000 0.000000
vn 0.000000 1.000000 0.000000
s 1
g pPlane1
usemtl initialShadingGroup
f 1/1/1 2/2/2 6/6/3 5/5/4
f 2/2/2 3/3/5 7/7/6 6/6/3
f 3/3/5 4/4/7 8/8/8 7/7/6
f 5/5/4 6/6/3 10/10/9 9/9/10
f 7/7/6 8/8/8 12/12/11 11/11/12
f 9/9/10 10/10/9 14/14/13 13/13/14
f 10/10/9 11/11/12 15/15/15 14/14/13
f 11/11/12 12/12/11 16/16/16 15/15/15
